<svg width="60" height="60" viewBox="0 0 60 60" fill="none" xmlns="http://www.w3.org/2000/svg">
<path d="M56.6667 33.3333H3.33333C1.51111 33.3333 0 31.8222 0 30C0 28.1778 1.51111 26.6667 3.33333 26.6667H56.6667C58.4889 26.6667 60 28.1778 60 30C60 31.8222 58.4889 33.3333 56.6667 33.3333Z" fill="#BEBEBF"/>
<path d="M30 60C28.1778 60 26.6667 58.4889 26.6667 56.6667V3.33334C26.6667 1.51112 28.1778 7.62939e-06 30 7.62939e-06C31.8222 7.62939e-06 33.3333 1.51112 33.3333 3.33334V56.6667C33.3333 58.4889 31.8222 60 30 60Z" fill="#BEBEBF"/>
</svg>
