<svg width="283" height="283" viewBox="0 0 283 283" fill="none" xmlns="http://www.w3.org/2000/svg">
<rect x="0.5" y="0.5" width="282" height="282" rx="10.5" stroke="#7D7D7D" stroke-dasharray="6 6"/>
<path d="M167.667 144.333H114.333C112.511 144.333 111 142.822 111 141C111 139.178 112.511 137.667 114.333 137.667H167.667C169.489 137.667 171 139.178 171 141C171 142.822 169.489 144.333 167.667 144.333Z" fill="#BEBEBF"/>
<path d="M141 171C139.178 171 137.667 169.489 137.667 167.667V114.333C137.667 112.511 139.178 111 141 111C142.822 111 144.333 112.511 144.333 114.333V167.667C144.333 169.489 142.822 171 141 171Z" fill="#BEBEBF"/>
</svg>
